<svg  width="605" height="600" xmlns="http://www.w3.org/2000/svg" ><path  d="
 M 285 66 C 315 64, 343, 69, 369, 77
 C 399 87, 424, 100, 447, 120
 C 474 145, 492, 171, 506, 199
 C 518 227, 525, 255, 528, 284
 C 530 315, 527, 341, 520, 365
 C 510 400, 496, 430, 473, 457
 C 451 481, 428, 499, 403, 511
 C 376 523, 348, 529, 320, 532
 C 287 533, 261, 531, 235, 524
 C 207 516, 184, 504, 163, 489
 C 136 467, 116, 446, 98, 415
 C 82 385, 73, 355, 70, 323
 C 67 292, 69, 265, 77, 239
 C 86 206, 101, 177, 120, 151
 C 138 130, 161, 111, 184, 98
 C 215 81, 248, 70, 283, 66" fill="rgb(192,154,82)" />
<path  d="
 M 295 140 C 274 141, 255, 147, 238, 156
 C 216 167, 197, 183, 183, 202
 C 170 220, 161, 237, 156, 256
 C 150 277, 150, 299, 152, 319
 C 155 341, 161, 359, 169, 376
 C 179 395, 192, 409, 205, 421
 C 221 434, 235, 443, 250, 449
 C 272 457, 293, 460, 315, 460
 C 337 459, 353, 453, 370, 446
 C 389 437, 404, 424, 419, 410
 C 436 389, 446, 369, 452, 346
 C 458 328, 460, 310, 458, 290
 C 458 270, 452, 254, 446, 239
 C 436 215, 422, 196, 404, 179
 C 389 163, 372, 156, 356, 149
 C 336 142, 317, 140, 297, 139" fill="rgb(199,165,111)" />
<path  d="
 M 290 143 C 310 141, 330, 144, 347, 150
 C 366 156, 382, 164, 397, 176
 C 412 190, 426, 206, 434, 221
 C 446 243, 453, 263, 454, 287
 C 456 309, 454, 328, 449, 346
 C 443 368, 435, 385, 422, 400
 C 409 417, 392, 431, 375, 439
 C 357 448, 340, 454, 322, 456
 C 298 457, 277, 455, 259, 448
 C 241 442, 226, 434, 212, 423
 C 197 410, 184, 396, 175, 380
 C 164 359, 157, 338, 154, 315
 C 152 290, 155, 270, 161, 251
 C 169 228, 179, 210, 194, 193
 C 207 179, 218, 169, 232, 162
 C 250 151, 269, 146, 288, 143" fill="rgb(197,162,105)" />
<path  d="
 M 303 179 C 293 179, 302, 191, 297, 198
 C 276 200, 258, 204, 244, 218
 C 234 230, 231, 244, 233, 259
 C 235 270, 237, 280, 245, 286
 C 263 301, 283, 307, 303, 312
 C 307 330, 305, 347, 307, 362
 C 289 365, 281, 345, 276, 333
 C 262 339, 240, 339, 236, 353
 C 239 367, 242, 378, 253, 385
 C 269 396, 286, 398, 305, 397
 C 310 404, 308, 412, 309, 419
 C 313 421, 316, 420, 320, 421
 C 321 414, 320, 404, 321, 397
 C 345 396, 364, 389, 380, 375
 C 390 361, 392, 346, 390, 329
 C 388 316, 383, 304, 373, 296
 C 356 282, 335, 278, 315, 272
 C 313 258, 313, 246, 314, 233
 C 332 234, 337, 253, 342, 264
 C 357 256, 370, 251, 383, 243
 C 382 235, 378, 230, 376, 224
 C 361 202, 337, 197, 314, 197
 C 308 191, 316, 176, 304, 178" fill="rgb(247,244,239)" />
<path  d="
 M 188 274 C 183 275, 177, 278, 173, 278
 C 172 297, 172, 312, 170, 330
 C 184 354, 185, 385, 208, 402
 C 176 383, 182, 353, 166, 332
 C 174 275, 155, 276, 166, 336
 C 165 334, 167, 335, 166, 338
 C 174 364, 186, 386, 204, 405
 C 223 424, 244, 435, 266, 442
 C 294 455, 307, 434, 331, 443
 C 316 438, 307, 438, 293, 440
 C 287 423, 316, 437, 326, 431
 C 313 431, 299, 433, 286, 423
 C 279 417, 277, 410, 272, 405
 C 275 400, 279, 402, 282, 401
 C 255 394, 254, 400, 234, 383
 C 227 371, 225, 360, 220, 350
 C 219 349, 231, 339, 238, 339
 C 227 314, 217, 292, 198, 274
 C 184 285, 180, 307, 187, 324
 C 197 352, 203, 382, 234, 395
 C 216 391, 200, 376, 194, 360
 C 192 343, 184, 332, 180, 319
 C 179 302, 179, 287, 186, 275" fill="rgb(66,21,0)" />
<path  d="
 M 317 154 C 318 162, 293, 174, 317, 193
 C 313 191, 311, 186, 313, 183
 C 322 204, 367, 191, 377, 225
 C 381 231, 384, 236, 386, 241
 C 379 246, 374, 251, 368, 254
 C 387 279, 404, 307, 421, 334
 C 422 344, 419, 349, 418, 356
 C 420 349, 422, 344, 421, 336
 C 415 306, 426, 278, 416, 252
 C 400 229, 385, 199, 355, 195
 C 352 178, 364, 194, 369, 194
 L 372 196
 L 369 194 C 353 181, 331, 171, 311, 171
 C 333 165, 354, 178, 371, 190
 C 397 208, 404, 230, 422, 253
 C 430 285, 420, 357, 434, 344
 L 434 345 L 434 346 L 435 348
 L 436 345 C 416 401, 428, 362, 406, 399
 C 424 386, 429, 367, 433, 350
 C 433 344, 437, 340, 440, 337
 C 447 313, 444, 288, 441, 268
 C 444 291, 450, 323, 435, 343
 C 442 323, 440, 298, 436, 276
 C 435 251, 421, 235, 411, 216
 C 391 182, 357, 172, 327, 161
 C 342 154, 401, 191, 374, 175
 C 353 164, 335, 156, 315, 155" fill="rgb(248,232,128)" />
<path  d="
 M 232 221 C 217 245, 208, 223, 194, 263
 C 194 251, 198, 241, 204, 236
 C 169 237, 167, 285, 171, 316
 C 171 304, 170, 293, 171, 279
 C 176 278, 181, 274, 186, 273
 C 186 277, 185, 281, 183, 284
 C 186 280, 188, 276, 190, 271
 C 188 281, 183, 290, 184, 299
 C 185 289, 188, 278, 196, 272
 C 215 293, 237, 321, 236, 343
 C 244 337, 256, 334, 267, 328
 C 265 321, 261, 316, 261, 310
 C 272 310, 280, 314, 289, 315
 C 293 330, 292, 345, 294, 359
 C 293 344, 293, 329, 291, 315
 C 297 312, 295, 321, 300, 320
 C 301 332, 291, 334, 296, 349
 C 295 337, 308, 336, 300, 321
 L 301 319 L 301 318 L 302 318
 L 302 314 C 276 313, 256, 303, 239, 284
 C 230 265, 224, 239, 230, 222" fill="rgb(121,55,1)" />
<path  d="
 M 491 324 C 484 326, 477, 329, 469, 328
 C 475 330, 481, 326, 485, 329
 C 480 333, 483, 341, 488, 343
 C 481 348, 471, 344, 461, 345
 C 458 381, 414, 424, 407, 437
 C 410 441, 417, 441, 422, 444
 C 404 458, 427, 460, 413, 469
 C 436 454, 456, 430, 469, 407
 C 486 380, 493, 352, 495, 322" fill="rgb(248,204,46)" />
<path  d="
 M 326 151 C 301 149, 264, 151, 242, 167
 C 237 170, 235, 171, 231, 172
 C 203 191, 181, 218, 170, 248
 C 174 245, 163, 301, 170, 326
 C 179 345, 179, 366, 189, 383
 C 180 367, 180, 347, 169, 332
 C 174 308, 164, 283, 171, 263
 C 179 244, 186, 236, 205, 237
 C 200 240, 194, 251, 193, 261
 C 206 226, 217, 241, 230, 222
 C 229 227, 226, 237, 230, 245
 C 236 230, 228, 220, 244, 209
 C 257 201, 271, 196, 285, 195
 C 288 190, 282, 180, 287, 180
 C 282 179, 275, 183, 268, 181
 C 251 185, 239, 196, 228, 207
 C 233 194, 246, 182, 258, 178
 C 232 193, 202, 200, 189, 226
 C 187 193, 252, 185, 242, 168
 C 268 151, 306, 150, 338, 155
 C 360 161, 396, 182, 415, 210
 C 404 196, 389, 181, 373, 172
 C 396 181, 418, 205, 429, 226
 C 406 178, 352, 154, 331, 152
 L 325 149 L 324 149 L 324 150" fill="rgb(174,97,6)" />
<path  d="
 M 368 255 C 380 271, 391, 288, 402, 305
 C 390 295, 377, 278, 363, 264
 C 357 269, 369, 286, 359, 284
 C 372 290, 386, 302, 390, 316
 C 393 330, 395, 344, 391, 355
 C 388 368, 382, 377, 372, 384
 C 383 373, 374, 407, 390, 392
 C 372 412, 409, 401, 392, 414
 C 416 397, 432, 374, 437, 350
 C 431 358, 428, 386, 409, 397
 C 418 387, 427, 362, 432, 342
 C 420 354, 416, 385, 391, 394
 C 408 377, 419, 359, 421, 337
 C 415 325, 409, 317, 404, 307
 C 392 289, 381, 273, 369, 257" fill="rgb(249,197,11)" />
<path  d="
 M 291 100 C 282 101, 273, 102, 265, 103
 C 235 107, 195, 125, 192, 138
 C 198 139, 204, 145, 209, 149
 C 201 150, 192, 142, 187, 148
 C 218 142, 200, 169, 216, 156
 C 215 149, 208, 144, 200, 141
 C 201 132, 208, 133, 212, 130
 C 233 128, 210, 145, 224, 152
 C 229 150, 235, 148, 241, 145
 C 220 134, 243, 139, 227, 119
 C 238 129, 244, 121, 245, 142
 C 251 141, 256, 139, 262, 138
 C 267 129, 247, 125, 255, 122
 C 254 117, 256, 112, 262, 109
 C 269 108, 275, 112, 276, 118
 C 279 129, 261, 125, 268, 135
 C 277 135, 284, 131, 293, 133
 C 299 123, 287, 121, 286, 114
 C 289 105, 295, 107, 300, 106
 C 309 108, 304, 118, 309, 120
 C 302 121, 297, 125, 298, 131
 C 307 130, 314, 133, 322, 132
 C 318 126, 321, 114, 329, 109
 C 339 115, 337, 128, 329, 133
 C 335 136, 342, 136, 347, 138
 C 355 127, 348, 125, 346, 115
 C 374 106, 308, 99, 295, 100" fill="rgb(248,192,13)" />
<path  d="
 M 294 85 C 275 85, 258, 89, 242, 94
 C 126 155, 155, 159, 258, 90
 C 280 92, 314, 92, 342, 98
 C 373 105, 400, 117, 424, 136
 C 454 160, 470, 189, 488, 217
 C 489 196, 460, 160, 438, 139
 C 408 113, 377, 96, 342, 89
 C 325 86, 310, 85, 296, 84" fill="rgb(249,197,12)" />
<path  d="
 M 99 283 C 92 312, 102, 346, 109, 373
 C 120 402, 135, 427, 155, 450
 C 178 474, 201, 490, 227, 502
 C 253 512, 277, 518, 305, 516
 C 285 500, 247, 501, 218, 484
 C 195 472, 175, 458, 158, 439
 C 140 419, 128, 398, 119, 376
 C 108 346, 105, 316, 103, 285" fill="rgb(54,25,5)" />
<path  d="
 M 157 372 C 140 384, 136, 385, 156, 373
 C 168 395, 170, 402, 184, 416
 C 188 422, 190, 429, 185, 433
 C 177 437, 172, 432, 167, 429
 C 172 433, 175, 436, 172, 443
 C 167 439, 163, 435, 160, 432
 C 169 443, 178, 450, 188, 458
 C 220 483, 254, 496, 293, 499
 C 295 496, 296, 493, 299, 491
 C 292 484, 272, 495, 269, 482
 C 276 464, 299, 474, 300, 472
 C 286 467, 273, 465, 261, 461
 C 254 471, 265, 473, 265, 480
 C 262 491, 253, 486, 249, 487
 C 241 482, 246, 474, 242, 469
 C 251 471, 255, 469, 255, 460
 C 248 458, 243, 455, 238, 452
 C 230 462, 240, 464, 241, 472
 C 237 483, 229, 476, 225, 478
 C 211 458, 229, 462, 234, 451
 C 201 434, 171, 406, 157, 374" fill="rgb(73,34,17)" />
<path  d="
 M 293 77 C 252 84, 213, 95, 180, 122
 C 207 102, 237, 88, 270, 84
 C 309 80, 346, 84, 376, 98
 C 411 111, 441, 135, 465, 165
 C 489 194, 499, 226, 507, 259
 C 513 287, 511, 315, 510, 338
 C 505 368, 494, 393, 481, 417
 C 463 445, 437, 472, 410, 487
 C 373 513, 363, 491, 323, 507
 C 322 519, 347, 509, 357, 511
 C 373 507, 405, 497, 425, 481
 C 447 466, 470, 442, 479, 424
 C 495 398, 503, 378, 510, 352
 C 515 323, 516, 293, 512, 267
 C 507 234, 496, 206, 480, 180
 C 464 153, 440, 132, 417, 113
 C 410 107, 385, 92, 391, 98
 C 412 111, 434, 126, 450, 144
 C 427 123, 403, 108, 378, 98
 C 375 97, 374, 95, 373, 95
 C 305 83, 327, 75, 300, 77" fill="rgb(164,99,6)" />
<path  d="
 M 449 228 C 459 234, 459, 272, 467, 262
 C 463 280, 472, 315, 464, 332
 C 464 320, 487, 320, 494, 314
 C 498 300, 495, 286, 494, 273
 C 483 255, 447, 233, 453, 226" fill="rgb(250,237,151)" />
<path  d="
 M 362 108 C 379 130, 357, 124, 358, 141
 C 366 144, 373, 148, 380, 152
 C 391 143, 370, 132, 392, 129
 C 410 145, 386, 143, 386, 154
 C 393 159, 398, 162, 404, 163
 C 408 160, 396, 154, 402, 147
 C 405 142, 411, 141, 415, 144
 C 420 147, 423, 151, 424, 155
 C 422 167, 411, 160, 409, 166
 C 420 178, 421, 156, 432, 167
 C 433 192, 469, 187, 474, 211
 C 462 188, 448, 167, 426, 149
 C 407 131, 387, 120, 366, 112" fill="rgb(250,216,16)" />
<path  d="
 M 166 346 C 174 373, 194, 406, 224, 424
 C 245 439, 268, 446, 292, 450
 C 301 452, 311, 449, 317, 452
 C 334 449, 358, 442, 379, 431
 C 384 426, 389, 424, 393, 421
 C 417 401, 434, 378, 441, 352
 C 432 370, 419, 399, 394, 413
 C 392 402, 385, 400, 376, 384
 C 365 390, 352, 395, 339, 398
 C 342 402, 343, 410, 347, 415
 C 357 409, 365, 401, 378, 402
 C 366 407, 357, 414, 352, 426
 C 365 421, 375, 417, 385, 412
 C 376 423, 363, 427, 355, 435
 C 374 431, 388, 421, 402, 409
 C 396 417, 389, 423, 380, 428
 C 354 445, 326, 451, 294, 449
 C 263 446, 236, 435, 213, 416
 C 189 395, 175, 371, 167, 346" fill="rgb(216,141,10)" />
<path  d="
 M 290 149 C 271 151, 254, 155, 239, 164
 C 183 196, 269, 144, 190, 205
 C 211 187, 227, 175, 241, 166
 C 251 163, 232, 172, 250, 173
 C 225 189, 193, 199, 186, 228
 C 199 201, 228, 192, 251, 180
 C 259 180, 230, 193, 228, 206
 C 245 181, 275, 179, 302, 177
 C 291 179, 263, 178, 248, 188
 C 263 171, 295, 180, 309, 161
 C 300 148, 267, 158, 254, 161
 C 271 144, 364, 152, 286, 148" fill="rgb(222,141,8)" />
<path  d="
 M 147 194 C 153 202, 141, 198, 138, 199
 C 126 216, 120, 234, 116, 253
 C 112 239, 150, 243, 141, 251
 C 144 233, 190, 196, 150, 195" fill="rgb(184,109,28)" />
<path  d="
 M 403 435 C 387 448, 362, 456, 365, 463
 C 366 463, 373, 466, 373, 472
 C 368 481, 364, 483, 365, 492
 C 383 486, 402, 477, 419, 463
 C 400 456, 409, 449, 406, 436" fill="rgb(229,149,35)" />
<path  d="
 M 198 130 C 172 146, 152, 171, 136, 197
 C 155 202, 144, 187, 155, 179
 C 170 176, 162, 194, 173, 196
 C 176 192, 181, 185, 186, 184
 C 181 181, 176, 178, 170, 175
 C 169 168, 171, 164, 175, 162
 C 187 165, 179, 175, 191, 179
 C 198 171, 205, 166, 212, 160
 C 208 156, 200, 167, 195, 169
 C 198 161, 190, 161, 185, 157
 C 184 140, 199, 146, 207, 149
 C 202 145, 197, 140, 189, 141
 C 190 136, 198, 135, 197, 132" fill="rgb(225,145,12)" />
<path  d="
 M 118 345 C 125 381, 145, 416, 171, 442
 C 175 433, 164, 429, 165, 420
 C 165 413, 172, 408, 178, 410
 C 174 406, 172, 402, 169, 398
 C 170 401, 168, 407, 164, 410
 C 160 407, 153, 415, 149, 407
 C 148 400, 142, 394, 150, 392
 C 155 388, 161, 384, 166, 394
 C 162 387, 159, 382, 156, 377
 C 148 377, 143, 384, 138, 386
 C 136 378, 127, 376, 131, 368
 C 134 354, 153, 365, 150, 361
 C 147 344, 123, 358, 120, 347" fill="rgb(33,19,6)" />
<path  d="
 M 284 77 C 249 80, 219, 96, 189, 113
 C 72 249, 155, 166, 203, 102
 C 246 87, 287, 80, 328, 86
 C 370 92, 405, 109, 436, 136
 C 478 172, 487, 208, 502, 243
 C 494 212, 479, 182, 456, 155
 C 449 148, 443, 142, 437, 136
 C 415 117, 393, 104, 369, 95
 C 355 90, 342, 88, 330, 85
 C 308 83, 285, 83, 266, 86
 C 234 91, 207, 104, 182, 121
 C 212 95, 251, 84, 290, 76
 C 289 77, 287, 76, 286, 77" fill="rgb(211,146,11)" />
<path  d="
 M 503 320 C 500 345, 495, 370, 483, 392
 C 472 424, 435, 455, 421, 472
 C 445 462, 464, 438, 477, 417
 C 496 386, 508, 353, 508, 319" fill="rgb(250,194,17)" />
<path  d="
 M 334 399 C 332 401, 328, 399, 326, 400
 C 324 406, 323, 414, 324, 420
 C 319 425, 314, 423, 310, 424
 C 316 423, 324, 423, 315, 428
 C 333 429, 345, 423, 355, 414
 C 347 427, 335, 433, 323, 436
 C 336 444, 343, 430, 352, 428
 C 358 426, 362, 423, 366, 424
 C 321 452, 293, 454, 367, 437
 C 376 431, 390, 422, 402, 409
 C 389 421, 374, 432, 357, 437
 C 360 426, 377, 423, 385, 414
 C 375 418, 365, 422, 355, 427
 C 354 415, 366, 406, 377, 403
 C 364 402, 357, 410, 349, 418
 C 343 411, 341, 405, 339, 400
 C 337 398, 336, 398, 335, 398" fill="rgb(182,97,5)" />
<path  d="
 M 113 286 C 109 307, 113, 328, 117, 347
 C 120 355, 136, 347, 145, 353
 C 147 357, 151, 358, 152, 363
 C 147 361, 142, 361, 137, 362
 C 144 361, 150, 362, 153, 367
 C 151 360, 148, 353, 146, 346
 C 137 345, 130, 348, 124, 353
 C 125 346, 113, 337, 124, 331
 C 135 322, 143, 345, 145, 338
 C 141 324, 140, 314, 139, 304
 C 136 308, 130, 311, 125, 306
 C 108 301, 130, 284, 115, 285" fill="rgb(60,21,4)" />
<path  d="
 M 91 336 C 96 370, 108, 401, 127, 429
 C 145 458, 170, 481, 197, 497
 C 249 517, 238, 526, 257, 524
 L 261 529
 L 256 525 C 291 534, 338, 530, 372, 521
 C 348 526, 323, 529, 296, 528
 C 261 520, 227, 514, 199, 494
 C 172 478, 147, 455, 131, 430
 C 111 401, 98, 371, 92, 338" fill="rgb(125,60,5)" />
<path  d="
 M 275 400 C 293 400, 258, 405, 288, 423
 C 300 432, 313, 430, 328, 431
 C 317 437, 291, 427, 290, 435
 C 308 437, 316, 437, 332, 442
 C 312 436, 301, 448, 285, 447
 C 297 448, 310, 450, 322, 446
 C 340 445, 350, 430, 364, 426
 C 350 425, 340, 443, 324, 439
 C 335 431, 352, 425, 360, 409
 C 350 422, 335, 430, 319, 430
 C 326 420, 302, 427, 297, 425
 C 297 415, 293, 406, 296, 400
 C 289 400, 282, 401, 276, 399" fill="rgb(121,51,2)" />
<path  d="
 M 317 317 C 327 316, 341, 324, 343, 336
 C 344 350, 334, 361, 322, 363
 C 316 351, 317, 334, 316, 320" fill="rgb(196,133,65)" />
<path  d="
 M 500 404 C 487 429, 473, 452, 449, 472
 C 438 477, 446, 464, 452, 462
 C 399 504, 372, 509, 360, 517
 C 386 517, 417, 499, 446, 480
 C 469 458, 491, 435, 499, 406" fill="rgb(244,213,33)" />
<path  d="
 M 151 242 C 148 249, 135, 254, 147, 263
 C 137 262, 129, 263, 122, 262
 C 135 224, 100, 271, 113, 304
 C 110 297, 112, 292, 111, 285
 C 122 300, 124, 272, 141, 293
 C 145 334, 141, 343, 156, 369
 C 148 348, 142, 329, 143, 306
 C 141 291, 141, 277, 145, 265
 C 146 256, 148, 250, 151, 244" fill="rgb(125,57,5)" />
<path  d="
 M 315 243 C 316 251, 317, 259, 316, 269
 C 332 274, 347, 279, 361, 284
 C 360 277, 358, 269, 360, 261
 C 377 278, 391, 294, 404, 310
 C 393 292, 380, 274, 368, 255
 C 356 260, 346, 269, 334, 271
 C 327 261, 325, 251, 316, 244" fill="rgb(229,149,6)" />
<path  d="
 M 438 176 C 420 180, 419, 190, 440, 199
 C 444 195, 452, 185, 459, 195
 C 461 210, 453, 197, 451, 211
 C 453 214, 456, 217, 459, 220
 C 469 221, 467, 219, 476, 212
 C 460 221, 490, 231, 472, 235
 C 479 240, 482, 246, 489, 251
 C 486 239, 482, 227, 477, 215
 C 473 211, 472, 207, 469, 204
 C 459 189, 440, 189, 434, 176" fill="rgb(250,236,128)" />
<path  d="
 M 107 339 C 118 381, 138, 422, 169, 454
 C 150 442, 135, 426, 126, 407
 C 115 386, 106, 367, 103, 345" fill="rgb(36,22,8)" />
<path  d="
 M 283 466 C 313 465, 289, 476, 305, 481
 C 289 495, 303, 483, 294, 500
 C 307 501, 320, 501, 332, 498
 C 340 485, 310, 497, 315, 475
 C 318 463, 332, 472, 336, 467
 C 321 469, 303, 467, 288, 466" fill="rgb(122,49,4)" />
<path  d="
 M 503 311 C 518 335, 494, 396, 473, 424
 C 460 444, 445, 461, 428, 472
 C 440 454, 364, 503, 366, 497
 C 386 499, 402, 491, 418, 482
 C 437 469, 456, 451, 468, 433
 C 482 415, 490, 398, 498, 380
 C 504 358, 512, 334, 509, 314" fill="rgb(224,140,5)" />
<path  d="
 M 364 458 C 356 461, 347, 463, 339, 465
 C 339 473, 339, 488, 330, 500
 C 341 498, 353, 496, 364, 491
 C 368 478, 345, 485, 350, 469
 C 353 457, 372, 465, 366, 457" fill="rgb(179,87,4)" />
<path  d="
 M 262 310 C 262 316, 266, 321, 268, 327
 C 224 347, 242, 339, 278, 327
 C 282 339, 284, 350, 293, 357
 C 291 344, 294, 327, 289, 315
 C 278 315, 272, 311, 264, 311" fill="rgb(168,85,3)" />
<path  d="
 M 280 71 C 248 71, 221, 83, 193, 95
 C 145 127, 133, 147, 123, 159
 C 122 164, 118, 170, 104, 202
 C 97 217, 93, 233, 89, 248
 C 87 271, 86, 293, 87, 316
 C 83 314, 85, 309, 84, 305
 C 83 298, 85, 295, 85, 289
 C 85 297, 81, 304, 72, 304
 C 75 307, 81, 304, 83, 303
 C 83 313, 86, 319, 87, 326
 C 89 324, 86, 321, 86, 318
 C 85 265, 94, 259, 105, 199
 C 113 183, 123, 167, 134, 151
 C 151 128, 174, 111, 195, 97
 C 222 80, 260, 72, 287, 70" fill="rgb(205,154,18)" />
<path  d="
 M 104 341 C 106 364, 116, 385, 125, 406
 C 136 425, 150, 441, 164, 454
 C 138 422, 117, 384, 108, 342" fill="rgb(34,21,7)" />
<path  d="
 M 253 76 C 215 84, 183, 103, 153, 130
 C 130 157, 109, 183, 103, 215
 C 115 184, 135, 153, 160, 126
 C 333 51, 124, 129, 256, 72" fill="rgb(240,206,37)" />
<path  d="
 M 135 190 C 121 206, 114, 190, 105, 234
 C 88 261, 118, 246, 106, 278
 C 110 245, 119, 216, 134, 189" fill="rgb(178,96,8)" />
<path  d="
 M 294 233 C 304 235, 300, 257, 302, 266
 C 292 264, 282, 263, 279, 254
 C 278 244, 285, 238, 291, 235" fill="rgb(178,145,74)" />
<path  d="
 M 283 72 C 280 74, 276, 72, 273, 73
 C 241 78, 214, 88, 190, 105
 C 215 92, 241, 81, 270, 77
 C 344 78, 382, 76, 274, 70" fill="rgb(248,234,111)" />
<path  d="
 M 517 341 C 512 368, 503, 393, 491, 418
 C 474 433, 459, 457, 443, 473
 C 465 458, 480, 440, 490, 419
 C 495 414, 497, 409, 499, 404
 C 512 382, 514, 365, 516, 342" fill="rgb(251,234,85)" />
<path  d="
 M 288 503 C 283 512, 296, 516, 306, 515
 C 300 518, 294, 518, 289, 518
 C 311 520, 333, 516, 354, 512
 C 324 519, 323, 497, 286, 507" fill="rgb(125,52,3)" />
<path  d="
 M 474 286 C 483 281, 483, 295, 489, 294
 C 491 302, 490, 308, 485, 311
 C 476 318, 472, 306, 469, 305
 C 470 303, 467, 291, 472, 288" fill="rgb(248,238,184)" />
<path  d="
 M 431 412 C 439 415, 451, 419, 441, 432
 C 426 431, 430, 437, 420, 430
 C 415 423, 424, 418, 427, 414" fill="rgb(238,197,112)" />
<path  d="
 M 389 448 C 404 447, 409, 452, 399, 468
 C 392 471, 385, 469, 382, 464
 C 377 457, 382, 450, 388, 449" fill="rgb(231,180,108)" />
<path  d="
 M 307 79 C 342 84, 378, 92, 407, 112
 C 441 133, 470, 163, 487, 196
 C 478 179, 468, 164, 454, 148
 C 436 126, 405, 110, 387, 97
 C 363 85, 338, 77, 310, 78" fill="rgb(134,78,2)" />
<path  d="
 M 411 144 C 404 149, 407, 153, 411, 157
 C 398 157, 407, 142, 406, 146
 C 410 160, 403, 170, 403, 168
 C 387 154, 379, 154, 406, 173
 C 410 175, 415, 176, 432, 202
 C 436 208, 440, 212, 442, 216
 C 442 213, 435, 208, 438, 204
 C 449 216, 453, 201, 458, 202
 C 446 176, 462, 221, 439, 203
 C 443 197, 446, 193, 452, 191
 C 447 192, 440, 199, 440, 201
 C 437 207, 436, 204, 434, 203
 C 424 192, 420, 180, 422, 175
 C 427 177, 432, 178, 433, 178
 C 433 175, 434, 172, 432, 170
 C 428 164, 420, 164, 420, 173
 C 423 176, 423, 178, 420, 179
 C 414 177, 411, 173, 407, 171
 C 406 159, 433, 162, 416, 146
 L 415 147 L 414 145 L 413 146" fill="rgb(241,228,168)" />
<path  d="
 M 102 395 C 118 397, 95, 419, 109, 408
 C 106 413, 103, 417, 100, 415
 C 103 417, 107, 413, 110, 414
 L 111 412 L 111 410 L 113 411
 L 121 413 C 91 428, 129, 414, 108, 430
 C 111 430, 119, 427, 119, 423
 C 127 437, 129, 442, 127, 445
 C 149 440, 125, 462, 145, 452
 C 148 460, 143, 467, 136, 464
 L 136 462
 L 136 464 C 142 467, 148, 458, 152, 465
 C 156 470, 152, 475, 147, 472
 C 147 469, 145, 468, 144, 471
 C 177 479, 192, 505, 202, 506
 L 195 506 L 193 506 L 196 507
 L 203 506 C 206 510, 229, 518, 255, 526
 C 227 516, 199, 503, 174, 483
 C 144 458, 121, 428, 107, 397" fill="rgb(164,100,14)" />
<path  d="
 M 463 146 C 486 174, 503, 205, 512, 240
 C 524 281, 523, 326, 513, 365
 C 525 329, 526, 287, 517, 251
 C 508 211, 490, 178, 465, 147" fill="rgb(249,239,173)" />
<path  d="
 M 120 404 C 110 394, 137, 442, 166, 467
 C 188 487, 210, 501, 235, 509
 C 213 499, 191, 486, 171, 469
 C 148 448, 131, 425, 119, 400" fill="rgb(241,234,182)" />
<path  d="
 M 200 437 C 208 434, 218, 444, 213, 451
 C 211 461, 202, 457, 198, 459
 C 197 452, 185, 445, 200, 438" fill="rgb(136,121,116)" />
<path  d="
 M 319 319 C 326 321, 332, 327, 335, 334
 C 336 342, 335, 347, 333, 351
 C 334 341, 330, 329, 320, 326
 C 322 336, 319, 349, 322, 359
 C 327 357, 329, 353, 331, 352
 C 334 344, 342, 342, 339, 333
 C 336 325, 328, 322, 322, 319" fill="rgb(190,97,5)" />
<path  d="
 M 285 159 C 315 155, 225, 187, 214, 199
 C 229 184, 255, 176, 274, 161
 L 275 159 L 276 159 L 278 160" fill="rgb(240,175,6)" />
<path  d="
 M 356 78 C 374 84, 392, 90, 408, 101
 C 367 83, 453, 126, 457, 145
 C 491 182, 509, 220, 517, 262
 C 498 184, 456, 136, 474, 158
 C 444 124, 428, 111, 410, 101
 C 392 90, 375, 84, 358, 78" fill="rgb(245,229,129)" />
<path  d="
 M 100 253 C 97 270, 95, 287, 95, 305
 C 96 297, 93, 284, 104, 283
 C 106 316, 109, 347, 120, 373
 C 122 378, 122, 380, 123, 383
 C 137 414, 157, 444, 187, 464
 C 158 443, 137, 414, 125, 385
 C 103 346, 105, 288, 107, 251" fill="rgb(124,60,9)" />
<path  d="
 M 461 357 C 466 354, 472, 358, 474, 363
 C 476 372, 475, 375, 467, 378
 C 460 379, 456, 377, 454, 374
 C 455 367, 456, 363, 459, 359" fill="rgb(245,227,101)" />
<path  d="
 M 138 206 C 143 204, 147, 207, 149, 211
 C 149 218, 148, 224, 144, 229
 C 137 230, 132, 225, 131, 221
 C 130 213, 133, 210, 137, 207" fill="rgb(202,157,109)" />
<path  d="
 M 224 235 C 224 247, 223, 265, 229, 277
 C 238 293, 253, 300, 265, 306
 C 250 303, 237, 296, 227, 283
 C 221 269, 217, 252, 222, 238" fill="rgb(86,40,4)" />
<path  d="
 M 337 162 C 353 169, 369, 174, 384, 184
 C 400 196, 411, 211, 418, 226
 C 429 244, 439, 260, 438, 281
 C 441 301, 444, 321, 436, 337
 C 446 307, 442, 270, 431, 243
 C 419 221, 407, 201, 387, 186
 C 371 174, 355, 167, 339, 162" fill="rgb(252,249,231)" />
<path  d="
 M 441 245 C 449 267, 452, 290, 451, 316
 C 449 336, 443, 353, 437, 370
 C 426 390, 412, 407, 394, 421
 C 379 434, 363, 442, 347, 447
 C 365 442, 383, 434, 399, 421
 C 418 403, 431, 385, 440, 366
 C 447 349, 450, 334, 452, 318
 L 452 316 L 452 315
 L 452 312 C 454 290, 449, 256, 442, 248" fill="rgb(125,52,14)" />
<path  d="
 M 408 105 C 445 133, 480, 169, 496, 211
 C 506 234, 513, 257, 515, 281
 C 516 307, 516, 330, 510, 351
 C 516 328, 518, 305, 517, 279
 C 515 260, 510, 244, 504, 228
 C 502 221, 499, 217, 499, 212
 C 487 186, 471, 163, 454, 144
 C 441 128, 426, 116, 411, 107" fill="rgb(212,156,7)" />
<path  d="
 M 229 505 C 242 516, 269, 520, 291, 522
 C 326 524, 355, 519, 382, 507
 C 353 517, 322, 521, 288, 519
 C 266 518, 248, 512, 230, 506" fill="rgb(243,227,107)" />
<path  d="
 M 169 125 C 148 141, 133, 163, 121, 183
 C 108 206, 101, 228, 96, 251
 C 91 279, 91, 311, 96, 336
 L 97 339
 L 96 341 C 101 366, 110, 390, 123, 411
 C 111 390, 102, 366, 97, 341
 C 92 312, 92, 281, 97, 255
 C 101 229, 110, 207, 120, 186
 C 133 164, 150, 143, 167, 128" fill="rgb(250,247,230)" />
<path  d="
 M 448 394 C 454 392, 458, 398, 461, 400
 C 461 406, 459, 413, 453, 413
 C 445 416, 443, 410, 441, 405
 C 445 401, 440, 397, 447, 396" fill="rgb(241,210,128)" />
<path  d="
 M 90 269 C 82 292, 95, 326, 81, 342
 C 89 334, 88, 343, 91, 344
 C 86 344, 90, 358, 76, 355
 C 81 349, 81, 349, 76, 352
 C 88 366, 89, 339, 92, 357
 C 91 358, 112, 401, 88, 395
 C 101 391, 104, 392, 105, 394
 C 101 379, 96, 369, 94, 357
 C 91 331, 89, 301, 90, 270" fill="rgb(160,110,13)" />
<path  d="
 M 463 358 C 457 361, 456, 367, 454, 371
 C 457 377, 461, 378, 466, 377
 C 478 376, 475, 357, 465, 357" fill="rgb(245,228,112)" />
<path  d="
 M 470 252 C 480 251, 492, 269, 478, 275
 C 470 272, 465, 260, 468, 254" fill="rgb(247,234,177)" />
<path  d="
 M 519 282 C 519 312, 516, 340, 507, 368
 C 497 397, 484, 423, 465, 447
 C 487 423, 502, 400, 509, 367
 C 518 340, 520, 312, 518, 283" fill="rgb(241,200,31)" />
<path  d="
 M 434 415 C 422 416, 424, 423, 426, 429
 C 432 433, 438, 433, 442, 430
 C 446 417, 439, 423, 436, 415" fill="rgb(238,204,135)" />
<path  d="
 M 409 127 C 429 139, 448, 159, 462, 179
 C 492 210, 507, 288, 500, 267
 C 499 239, 503, 249, 490, 218
 C 478 206, 473, 192, 464, 180
 C 449 159, 430, 140, 410, 128" fill="rgb(248,232,133)" />
<path  d="
 M 471 287 C 502 298, 448, 290, 483, 315
 C 494 302, 486, 293, 478, 288" fill="rgb(248,241,204)" />
<path  d="
 M 452 231 C 465 243, 481, 255, 492, 270
 C 487 250, 468, 240, 456, 230" fill="rgb(249,195,33)" />
<path  d="
 M 354 191 C 384 199, 404, 228, 418, 254
 C 424 285, 421, 314, 424, 346
 C 425 316, 424, 284, 423, 255
 C 404 230, 388, 200, 357, 191" fill="rgb(251,249,229)" />
<path  d="
 M 458 132 C 490 170, 513, 212, 522, 259
 C 525 281, 526, 300, 525, 321
 C 523 352, 514, 378, 505, 404
 C 514 383, 520, 361, 524, 338
 C 524 331, 526, 327, 525, 322
 C 528 301, 526, 282, 523, 264
 L 523 262
 L 522 260 C 518 234, 509, 211, 498, 188
 C 487 168, 475, 151, 460, 134" fill="rgb(122,57,8)" />
<path  d="
 M 361 111 C 360 118, 354, 110, 351, 114
 C 348 126, 358, 126, 356, 134
 C 359 125, 374, 125, 362, 110" fill="rgb(244,228,143)" />
<path  d="
 M 388 131 C 374 136, 387, 147, 397, 138
 C 392 146, 384, 147, 384, 150
 C 386 148, 388, 151, 385, 153
 C 404 167, 405, 165, 418, 179
 C 420 175, 417, 171, 422, 166
 C 420 175, 414, 169, 409, 168
 C 409 159, 421, 166, 422, 157
 C 423 153, 421, 151, 420, 149
 C 415 146, 410, 141, 405, 144
 C 399 151, 402, 158, 408, 161
 C 402 158, 399, 151, 404, 145
 C 422 171, 393, 133, 424, 154
 C 416 163, 406, 166, 401, 164
 C 395 160, 390, 158, 386, 156
 C 385 141, 397, 148, 398, 140
 C 395 137, 398, 135, 395, 134
 C 392 146, 380, 127, 392, 131" fill="rgb(244,224,106)" />
<path  d="
 M 500 278 C 503 290, 503, 305, 502, 317
 C 516 314, 512, 289, 501, 280" fill="rgb(250,236,122)" />
<path  d="
 M 280 159 C 260 174, 232, 184, 210, 199
 C 229 187, 303, 155, 290, 160" fill="rgb(246,189,6)" />
<path  d="
 M 260 110 C 252 122, 274, 126, 256, 125
 C 268 123, 270, 129, 275, 121
 C 274 115, 270, 110, 265, 110" fill="rgb(240,219,153)" />
<path  d="
 M 224 235 C 217 250, 222, 268, 227, 282
 C 239 299, 256, 304, 271, 309
 C 256 303, 239, 295, 229, 279
 C 224 265, 221, 251, 224, 238" fill="rgb(71,34,5)" />
<path  d="
 M 439 126 C 461 147, 477, 171, 492, 197
 C 505 223, 515, 248, 517, 277
 C 514 245, 504, 216, 490, 189
 C 476 166, 461, 145, 440, 128" fill="rgb(233,186,25)" />
<path  d="
 M 229 344 C 222 352, 235, 369, 238, 378
 C 247 390, 258, 393, 268, 397
 C 260 395, 253, 390, 247, 384
 C 236 372, 234, 359, 229, 347" fill="rgb(201,130,24)" />
<path  d="
 M 432 414 C 435 425, 429, 427, 445, 423
 C 432 436, 420, 425, 427, 418" fill="rgb(237,197,117)" />
<path  d="
 M 450 396 C 441 398, 441, 416, 453, 412
 C 448 397, 469, 412, 452, 394" fill="rgb(241,215,158)" />
<path  d="
 M 389 448 C 374 460, 385, 466, 390, 467
 C 404 459, 397, 468, 389, 453
 C 394 448, 399, 455, 400, 455
 C 402 460, 402, 460, 401, 456
 C 399 452, 395, 449, 390, 450" fill="rgb(231,195,146)" />
<path  d="
 M 132 245 C 132 263, 125, 262, 122, 258
 C 129 261, 136, 262, 144, 261
 C 131 261, 151, 242, 136, 247" fill="rgb(178,134,97)" />
<path  d="
 M 497 315 C 487 319, 477, 323, 467, 326
 C 477 330, 485, 322, 496, 323
 C 494 340, 492, 354, 487, 367
 C 492 354, 495, 340, 497, 326
 C 498 322, 493, 319, 497, 316" fill="rgb(228,149,22)" />
<path  d="
 M 510 268 C 517 281, 513, 302, 515, 318
 C 512 306, 512, 288, 510, 272" fill="rgb(149,87,3)" />
<path  d="
 M 447 242 C 457 248, 465, 292, 462, 271
 C 463 306, 468, 323, 459, 335
 C 471 296, 471, 324, 463, 274
 C 463 270, 461, 267, 468, 267
 C 451 237, 462, 251, 448, 246" fill="rgb(241,231,189)" />
<path  d="
 M 126 286 C 117 293, 121, 306, 134, 306
 C 103 271, 157, 306, 128, 285" fill="rgb(172,158,148)" />
<path  d="
 M 294 237 C 292 237, 290, 264, 296, 264
 C 297 254, 298, 245, 298, 236" fill="rgb(159,127,7)" />
<path  d="
 M 299 145 C 227 157, 324, 138, 336, 153
 C 367 160, 391, 175, 411, 198
 C 370 159, 388, 172, 350, 153
 C 332 147, 314, 146, 297, 145" fill="rgb(126,56,14)" />
<path  d="
 M 411 143 C 417 172, 415, 131, 421, 163
 C 408 155, 415, 157, 405, 149" fill="rgb(245,227,138)" />
<path  d="
 M 317 234 C 339 256, 335, 278, 336, 267
 C 335 257, 333, 242, 320, 236" fill="rgb(177,84,7)" />
<path  d="
 M 221 113 C 189 128, 160, 153, 141, 184
 C 159 156, 192, 127, 221, 114" fill="rgb(243,225,192)" />
<path  d="
 M 176 241 C 153 278, 172, 282, 167, 321
 C 171 292, 158, 267, 179, 245" fill="rgb(130,64,4)" />
<path  d="
 M 434 490 C 411 502, 388, 514, 363, 520
 C 340 521, 318, 526, 294, 523
 C 318 522, 336, 528, 358, 521
 L 360 521 L 361 521
 L 363 520 C 387 514, 411, 506, 432, 491" fill="rgb(204,154,20)" />
<path  d="
 M 470 195 C 489 218, 487, 241, 502, 269
 C 490 249, 491, 215, 472, 196" fill="rgb(242,233,182)" />
<path  d="
 M 304 99 C 340 99, 371, 111, 401, 128
 C 434 149, 461, 181, 476, 212
 C 459 178, 435, 149, 402, 129
 L 401 128
 L 399 126 C 371 110, 340, 99, 306, 99" fill="rgb(213,148,16)" />
<path  d="
 M 245 148 C 216 160, 186, 184, 170, 214
 C 188 187, 217, 160, 245, 148" fill="rgb(222,145,29)" />
<path  d="
 M 208 186 C 185 205, 172, 232, 164, 258
 C 172 232, 187, 209, 207, 188" fill="rgb(241,225,93)" />
<path  d="
 M 183 113 C 152 128, 139, 152, 121, 179
 C 138 143, 175, 118, 181, 118" fill="rgb(248,233,102)" />
<path  d="
 M 367 161 C 384 169, 398, 183, 412, 198
 C 428 215, 436, 233, 444, 252
 C 437 233, 429, 214, 415, 198
 C 401 182, 385, 170, 369, 162" fill="rgb(74,25,8)" />
<path  d="
 M 300 106 C 298 111, 290, 105, 289, 112
 C 287 121, 299, 120, 296, 129
 C 298 122, 298, 106, 304, 110" fill="rgb(241,219,138)" />
<path  d="
 M 451 193 C 446 194, 444, 198, 442, 202
 C 459 221, 447, 175, 458, 204
 C 457 198, 458, 193, 452, 193" fill="rgb(250,248,225)" />
<path  d="
 M 468 236 C 480 249, 501, 264, 496, 288
 C 496 276, 495, 265, 491, 255
 C 484 250, 479, 242, 472, 237" fill="rgb(221,145,18)" />
<path  d="
 M 470 255 C 468 260, 471, 274, 478, 273
 C 489 256, 473, 266, 469, 257" fill="rgb(247,238,201)" />
<path  d="
 M 346 79 C 373 85, 398, 96, 420, 110
 C 399 94, 375, 84, 349, 78" fill="rgb(253,245,166)" />
<path  d="
 M 286 181 C 288 184, 283, 198, 291, 195
 C 294 191, 298, 178, 288, 182" fill="rgb(142,69,5)" />
<path  d="
 M 201 439 C 192 443, 195, 451, 199, 456
 C 182 436, 220, 459, 206, 439" fill="rgb(176,168,166)" />
<path  d="
 M 310 162 C 294 181, 263, 172, 246, 188
 C 263 173, 297, 183, 309, 164" fill="rgb(244,194,10)" />
<path  d="
 M 222 153 C 208 168, 180, 185, 171, 208
 C 172 189, 238, 149, 223, 155" fill="rgb(239,221,195)" />
<path  d="
 M 274 331 C 260 336, 246, 341, 233, 346
 C 235 358, 238, 368, 243, 378
 C 251 388, 260, 392, 269, 395
 C 264 392, 252, 389, 246, 379
 C 237 371, 240, 360, 235, 352
 C 245 339, 262, 337, 274, 331
 C 278 334, 278, 338, 280, 341
 C 279 337, 278, 334, 276, 331" fill="rgb(217,210,206)" />
<path  d="
 M 191 273 C 182 285, 180, 301, 182, 316
 C 194 339, 192, 365, 212, 381
 C 193 366, 196, 342, 184, 324
 C 182 305, 181, 286, 192, 275" fill="rgb(173,80,10)" />
<path  d="
 M 291 314 C 295 328, 293, 344, 295, 359
 C 284 338, 312, 325, 292, 315" fill="rgb(81,40,4)" />
<path  d="
 M 315 236 C 323 243, 328, 265, 337, 270
 C 326 266, 331, 244, 318, 238" fill="rgb(118,64,10)" />
<path  d="
 M 439 389 C 425 413, 409, 430, 385, 444
 C 402 437, 427, 414, 440, 391" fill="rgb(242,226,195)" />
<path  d="
 M 92 227 C 75 224, 79, 246, 73, 257
 C 85 252, 75, 239, 90, 229" fill="rgb(77,23,5)" />
<path  d="
 M 279 522 C 294 528, 313, 529, 331, 526
 C 316 522, 296, 527, 281, 522" fill="rgb(162,106,14)" />
<path  d="
 M 123 289 C 129 289, 126, 303, 135, 304
 C 124 307, 121, 299, 123, 292" fill="rgb(149,132,119)" />
<path  d="
 M 139 209 C 129 212, 132, 228, 141, 228
 C 133 230, 139, 206, 146, 211" fill="rgb(218,192,164)" />
<path  d="
 M 262 112 C 267 109, 274, 115, 273, 120
 C 269 120, 263, 122, 261, 115" fill="rgb(241,211,114)" />
<path  d="
 M 472 288 C 470 297, 504, 292, 480, 313
 C 489 307, 490, 302, 489, 296
 C 483 296, 484, 285, 477, 287" fill="rgb(250,240,178)" />
<path  d="
 M 177 162 C 164 170, 177, 179, 185, 179
 L 187 179 L 187 177 L 188 180
 L 187 177 C 176 172, 171, 180, 182, 162" fill="rgb(228,201,159)" />
<path  d="
 M 471 296 C 476 294, 484, 305, 481, 309
 C 476 307, 473, 304, 471, 298" fill="rgb(245,235,185)" />
<path  d="
 M 319 321 C 325 327, 338, 337, 331, 351
 C 340 339, 331, 325, 322, 321" fill="rgb(116,57,11)" />
<path  d="
 M 331 110 C 316 114, 326, 133, 319, 134
 C 330 127, 329, 97, 332, 129
 C 326 135, 326, 135, 332, 130
 C 330 121, 341, 117, 332, 112" fill="rgb(235,214,106)" />
<path  d="
 M 453 434 C 436 455, 416, 470, 395, 481
 C 416 471, 433, 459, 453, 436" fill="rgb(248,231,194)" />
<path  d="
 M 354 187 C 356 200, 379, 197, 386, 212
 C 403 225, 404, 242, 419, 254
 C 419 259, 421, 261, 421, 263
 C 417 293, 426, 323, 421, 352
 C 426 339, 417, 291, 423, 267
 C 421 261, 420, 259, 419, 256
 C 405 242, 403, 225, 389, 212
 C 405 225, 412, 244, 425, 261
 C 422 289, 427, 314, 426, 340
 C 427 314, 422, 289, 426, 263
 C 424 259, 422, 257, 421, 255
 C 392 193, 354, 197, 362, 190" fill="rgb(250,242,185)" />
<path  d="
 M 354 464 C 344 480, 367, 485, 368, 477
 C 375 465, 359, 486, 351, 468" fill="rgb(224,195,165)" />
<path  d="
 M 143 412 C 153 434, 181, 459, 200, 471
 C 179 456, 158, 436, 145, 415" fill="rgb(219,209,199)" />
<path  d="
 M 360 113 C 370 117, 365, 131, 357, 126
 C 362 126, 357, 111, 360, 116" fill="rgb(246,226,132)" />
<path  d="
 M 126 162 C 95 186, 115, 181, 96, 202
 L 92 204 L 93 204
 L 93 201 C 96 203, 99, 200, 103, 199
 C 103 204, 101, 207, 99, 210
 C 107 194, 115, 177, 124, 161" fill="rgb(171,100,14)" />
<path  d="
 M 417 415 C 401 431, 380, 444, 362, 452
 C 382 445, 400, 433, 417, 417" fill="rgb(220,143,33)" />
<path  d="
 M 445 397 C 457 409, 444, 401, 456, 412
 C 445 411, 444, 405, 445, 401" fill="rgb(239,208,152)" />
<path  d="
 M 415 133 C 434 147, 458, 172, 469, 191
 C 456 170, 441, 151, 418, 134" fill="rgb(235,226,190)" />
<path  d="
 M 290 111 C 298 105, 303, 117, 295, 120
 C 290 119, 289, 116, 290, 113" fill="rgb(239,212,107)" />
<path  d="
 M 370 168 C 389 180, 409, 199, 423, 218
 C 412 200, 391, 179, 372, 169" fill="rgb(118,69,14)" />
<path  d="
 M 298 345 C 297 350, 296, 362, 302, 363
 C 300 356, 304, 348, 301, 344" fill="rgb(199,170,19)" />
<path  d="
 M 288 241 C 280 244, 279, 259, 289, 260
 C 286 255, 289, 248, 286, 243" fill="rgb(178,95,8)" />
<path  d="
 M 332 125 C 326 131, 317, 136, 282, 133
 C 301 131, 329, 143, 334, 124" fill="rgb(237,227,193)" />
<path  d="
 M 131 248 C 140 244, 139, 254, 137, 258
 C 130 261, 130, 254, 132, 251" fill="rgb(160,103,53)" />
<path  d="
 M 172 413 C 168 415, 167, 419, 168, 424
 L 168 426 L 169 427
 L 169 429 C 172 431, 178, 435, 181, 434
 C 165 436, 176, 411, 168, 425
 C 166 414, 170, 416, 175, 413
 C 175 418, 179, 426, 185, 430
 C 182 420, 186, 426, 179, 411
 L 175 413 L 174 413 L 174 414" fill="rgb(150,145,139)" />
<path  d="
 M 404 97 C 421 105, 437, 117, 452, 130
 C 439 116, 424, 104, 406, 98" fill="rgb(236,207,23)" />
<path  d="
 M 169 217 C 151 238, 142, 309, 149, 303
 C 146 275, 154, 245, 169, 218" fill="rgb(176,99,36)" />
<path  d="
 M 295 402 C 300 408, 290, 430, 306, 423
 C 298 422, 297, 410, 298, 402" fill="rgb(59,30,4)" />
<path  d="
 M 499 267 C 501 274, 500, 281, 508, 285
 C 507 278, 508, 274, 501, 269" fill="rgb(245,197,30)" />
<path  d="
 M 462 358 C 472 355, 473, 364, 471, 368
 C 455 361, 477, 359, 462, 360" fill="rgb(246,224,96)" />
<path  d="
 M 472 261 C 477 263, 481, 264, 482, 267
 C 475 276, 473, 269, 472, 264" fill="rgb(246,232,181)" />
<path  d="
 M 351 114 C 356 111, 361, 119, 358, 123
 C 352 124, 348, 121, 350, 116" fill="rgb(242,225,126)" />
<path  d="
 M 148 259 C 147 277, 141, 294, 145, 316
 C 146 297, 144, 277, 150, 261" fill="rgb(226,210,193)" />
<path  d="
 M 469 257 C 463 253, 497, 272, 468, 274
 C 489 268, 481, 255, 474, 253" fill="rgb(247,233,171)" />
<path  d="
 M 439 204 C 477 230, 422, 210, 460, 228
 C 456 216, 448, 211, 443, 207" fill="rgb(212,127,23)" />
<path  d="
 M 101 202 C 89 203, 84, 212, 84, 223
 C 116 213, 62, 218, 105, 202" fill="rgb(86,19,4)" />
<path  d="
 M 288 240 C 289 246, 288, 255, 290, 262
 C 291 254, 293, 246, 290, 240" fill="rgb(105,74,12)" />
<path  d="
 M 292 94 C 204 110, 317, 88, 335, 100
 C 322 94, 305, 98, 288, 96" fill="rgb(235,222,189)" />
<path  d="
 M 232 120 C 236 129, 234, 146, 240, 136
 C 239 127, 228, 128, 239, 120" fill="rgb(236,211,158)" />
<path  d="
 M 239 165 C 227 171, 214, 178, 204, 189
 C 204 196, 225, 170, 238, 166" fill="rgb(239,195,32)" />
<path  d="
 M 485 297 C 489 296, 488, 308, 485, 309
 C 489 296, 475, 306, 482, 297" fill="rgb(248,241,198)" />
<path  d="
 M 457 367 C 460 366, 466, 371, 469, 371
 C 459 376, 462, 371, 456, 371" fill="rgb(244,224,65)" />
<path  d="
 M 433 238 C 444 260, 449, 290, 446, 321
 C 450 293, 445, 264, 435, 240" fill="rgb(115,75,11)" />
<path  d="
 M 197 357 C 221 394, 174, 348, 241, 407
 C 220 389, 203, 374, 197, 357" fill="rgb(121,54,7)" />
<path  d="
 M 473 331 C 471 333, 469, 344, 475, 341
 C 477 337, 479, 333, 475, 331" fill="rgb(242,213,83)" />
<path  d="
 M 440 206 C 443 211, 446, 220, 454, 221
 C 450 216, 447, 211, 441, 208" fill="rgb(203,110,4)" />
<path  d="
 M 230 166 C 211 177, 192, 197, 181, 215
 C 191 197, 212, 177, 231, 167" fill="rgb(175,89,31)" />
<path  d="
 M 88 365 C 84 370, 92, 382, 95, 386
 C 97 378, 95, 371, 92, 364" fill="rgb(124,64,11)" />
<path  d="
 M 383 453 C 393 450, 390, 460, 384, 462
 C 382 460, 380, 457, 383, 455" fill="rgb(222,170,104)" />
<path  d="
 M 504 238 C 507 242, 510, 253, 510, 259
 C 506 253, 505, 247, 503, 241" fill="rgb(148,86,5)" />
<path  d="
 M 182 407 C 193 420, 208, 433, 224, 442
 C 211 433, 195, 420, 186, 409" fill="rgb(219,210,203)" />
<path  d="
 M 277 69 C 289 66, 359, 70, 382, 84
 C 355 72, 323, 68, 289, 67" fill="rgb(123,58,7)" />
<path  d="
 M 394 165 C 419 187, 434, 205, 448, 233
 C 438 208, 418, 184, 396, 168" fill="rgb(173,103,40)" />
<path  d="
 M 282 196 C 264 199, 244, 205, 233, 223
 C 233 209, 274, 193, 289, 197" fill="rgb(214,143,19)" />
<path  d="
 M 151 335 C 155 352, 161, 367, 169, 383
 C 181 404, 199, 422, 217, 435
 C 201 423, 183, 404, 172, 386
 C 162 369, 156, 353, 152, 336" fill="rgb(63,45,33)" />
<path  d="
 M 184 365 C 189 387, 178, 375, 207, 402
 C 197 390, 185, 379, 184, 365" fill="rgb(121,57,6)" />
<path  d="
 M 138 188 C 130 203, 124, 215, 120, 228
 C 126 215, 133, 198, 138, 189" fill="rgb(232,214,191)" />
<path  d="
 M 449 144 C 454 146, 460, 155, 465, 160
 C 459 156, 454, 151, 449, 147" fill="rgb(144,91,2)" />
<path  d="
 M 314 184 C 312 192, 314, 198, 322, 194
 C 320 190, 317, 188, 315, 185" fill="rgb(214,192,63)" />
<path  d="
 M 447 272 C 447 281, 450, 304, 447, 318
 C 453 319, 450, 300, 448, 271" fill="rgb(169,101,4)" />
<path  d="
 M 472 333 C 478 328, 478, 337, 477, 340
 C 469 343, 473, 338, 473, 335" fill="rgb(241,210,73)" />
<path  d="
 M 191 148 C 178 158, 199, 157, 196, 165
 C 196 160, 204, 166, 207, 156
 C 202 145, 203, 174, 186, 149" fill="rgb(233,215,183)" />
<path  d="
 M 221 349 C 227 364, 230, 384, 249, 393
 C 232 384, 228, 365, 222, 350" fill="rgb(32,9,2)" />
<path  d="
 M 207 441 C 212 440, 212, 448, 211, 450
 C 202 451, 203, 447, 208, 444" fill="rgb(175,167,165)" />
<path  d="
 M 303 116 C 287 105, 302, 124, 293, 128
 C 300 134, 306, 132, 310, 133
 C 277 127, 324, 121, 298, 113" fill="rgb(239,213,113)" />
<path  d="
 M 511 271 C 513 286, 514, 305, 511, 319
 C 513 302, 515, 286, 511, 272" fill="rgb(138,77,1)" />
<path  d="
 M 353 113 C 343 126, 367, 123, 354, 113" fill="rgb(241,221,98)" />
<path  d="
 M 83 326 C 81 330, 71, 328, 74, 333
 C 78 331, 87, 333, 86, 327" fill="rgb(133,62,12)" />
<path  d="
 M 157 371 C 168 396, 188, 421, 213, 437
 C 189 421, 169, 398, 159, 374" fill="rgb(122,59,16)" />
<path  d="
 M 134 211 C 155 215, 122, 226, 149, 224
 C 140 228, 138, 229, 137, 228
 C 133 223, 130, 219, 132, 214
 C 130 218, 133, 223, 135, 226
 C 138 229, 140, 228, 141, 229
 C 151 206, 151, 217, 142, 210" fill="rgb(198,156,111)" />
<path  d="
 M 270 200 C 260 202, 250, 206, 242, 213
 C 251 209, 263, 201, 273, 199" fill="rgb(239,197,31)" />
<path  d="
 M 446 318 C 442 359, 438, 328, 440, 366
 C 445 341, 446, 345, 446, 321" fill="rgb(174,102,14)" />
<path  d="
 M 293 471 C 271 482, 286, 469, 272, 479
 C 308 494, 284, 480, 279, 486
 C 278 471, 299, 483, 291, 475" fill="rgb(170,146,132)" />
<path  d="
 M 155 181 C 156 179, 166, 180, 163, 188
 C 154 181, 153, 186, 149, 191
 C 156 194, 153, 182, 169, 197
 C 166 194, 166, 192, 162, 190
 C 164 184, 163, 178, 157, 180" fill="rgb(229,210,189)" />
<path  d="
 M 470 255 C 483 250, 480, 268, 469, 257" fill="rgb(248,228,151)" />
<path  d="
 M 113 421 C 111 422, 107, 421, 106, 424
 C 111 428, 121, 424, 114, 420" fill="rgb(221,164,23)" />
<path  d="
 M 208 129 C 217 145, 198, 133, 219, 148
 C 215 145, 216, 138, 221, 134
 C 218 148, 206, 130, 219, 130" fill="rgb(234,215,184)" />
<path  d="
 M 461 248 C 464 249, 466, 258, 465, 262
 C 463 258, 463, 254, 460, 251" fill="rgb(249,240,158)" />
<path  d="
 M 470 330 C 465 340, 479, 319, 479, 341
 C 475 345, 470, 343, 466, 344
 C 473 343, 479, 345, 486, 345
 C 483 344, 481, 344, 480, 341
 C 493 347, 467, 326, 487, 331
 C 481 329, 475, 330, 471, 329" fill="rgb(246,236,191)" />
<path  d="
 M 459 362 C 460 363, 464, 365, 468, 368
 C 463 369, 458, 368, 456, 365" fill="rgb(245,234,158)" />
<path  d="
 M 76 335 C 66 355, 94, 336, 88, 350
 C 95 326, 70, 354, 75, 335" fill="rgb(123,61,8)" />
<path  d="
 M 469 211 C 482 251, 460, 215, 466, 234
 C 491 234, 460, 223, 476, 215" fill="rgb(243,233,190)" />
<path  d="
 M 340 337 C 340 354, 315, 361, 321, 356
 C 330 355, 342, 351, 340, 339" fill="rgb(214,139,19)" />
<path  d="
 M 424 166 C 430 165, 429, 171, 427, 174
 C 420 173, 427, 171, 422, 168" fill="rgb(237,218,141)" />
<path  d="
 M 387 460 C 401 460, 388, 474, 386, 461" fill="rgb(227,178,111)" />
<path  d="
 M 400 126 C 417 137, 432, 149, 445, 163
 C 434 149, 417, 137, 403, 127" fill="rgb(166,102,26)" />
<path  d="
 M 397 511 C 377 518, 357, 523, 336, 526
 C 357 524, 377, 519, 396, 511" fill="rgb(172,100,14)" />
<path  d="
 M 201 136 C 201 144, 218, 146, 217, 157
 C 217 144, 206, 144, 201, 137" fill="rgb(217,148,23)" />
<path  d="
 M 268 171 C 278 170, 267, 179, 263, 177
 C 264 174, 266, 174, 266, 172" fill="rgb(207,114,5)" />
<path  d="
 M 126 436 C 123 444, 107, 434, 118, 442
 C 125 448, 125, 455, 131, 458
 C 121 454, 128, 448, 135, 449
 C 129 447, 123, 453, 119, 444
 C 120 439, 124, 440, 127, 438" fill="rgb(66,28,8)" />
<path  d="
 M 183 387 C 190 400, 208, 416, 215, 421
 C 202 411, 195, 402, 184, 388" fill="rgb(104,71,30)" />
<path  d="
 M 463 220 C 463 231, 470, 229, 475, 231
 C 473 226, 468, 224, 465, 221" fill="rgb(249,246,234)" />
<path  d="
 M 254 296 C 262 304, 273, 309, 286, 311
 C 275 308, 266, 302, 256, 297" fill="rgb(170,88,17)" />
<path  d="
 M 138 213 C 152 214, 135, 227, 136, 216" fill="rgb(206,168,123)" />
<path  d="
 M 417 150 C 415 157, 418, 158, 411, 159
 C 418 162, 421, 156, 419, 153" fill="rgb(244,218,87)" />
<path  d="
 M 500 312 C 500 327, 496, 342, 494, 356
 C 497 342, 502, 328, 499, 314" fill="rgb(238,225,187)" />
<path  d="
 M 81 295 C 79 299, 72, 297, 71, 302
 C 75 301, 82, 302, 82, 298" fill="rgb(237,211,55)" />
<path  d="
 M 447 167 C 459 180, 469, 194, 476, 210
 C 468 193, 460, 181, 450, 168" fill="rgb(170,100,32)" />
<path  d="
 M 92 377 C 91 379, 85, 376, 85, 381
 C 89 381, 98, 381, 95, 376" fill="rgb(215,158,26)" />
<path  d="
 M 391 453 C 393 456, 394, 459, 396, 462
 C 400 458, 398, 453, 393, 452" fill="rgb(229,137,24)" />
<path  d="
 M 443 377 C 436 393, 425, 407, 411, 419
 C 425 411, 435, 394, 443, 380" fill="rgb(229,192,49)" />
<path  d="
 M 74 343 C 77 350, 76, 357, 79, 365
 C 78 358, 87, 360, 90, 357
 C 86 358, 83, 360, 80, 361
 C 70 351, 81, 347, 88, 346
 C 83 344, 75, 351, 74, 345" fill="rgb(67,29,8)" />
<path  d="
 M 462 278 C 461 293, 463, 309, 461, 324
 C 464 310, 464, 294, 462, 279" fill="rgb(198,157,94)" />
<path  d="
 M 138 364 C 144 359, 153, 381, 156, 371
 C 160 370, 150, 368, 142, 361" fill="rgb(143,134,123)" /></svg>